<mxfile host="app.diagrams.net" modified="2023-12-14T13:16:38.260Z" agent="Mozilla/5.0 (Windows NT 10.0; Win64; x64) AppleWebKit/537.36 (KHTML, like Gecko) Chrome/120.0.0.0 Safari/537.36" etag="UEbNE1EzEvuLp7WRL8Sn" version="22.1.8" type="device">
  <diagram name="Page-1" id="Sr-imbNHLKmKmECXr7p_">
    <mxGraphModel dx="1990" dy="757" grid="1" gridSize="10" guides="1" tooltips="1" connect="1" arrows="1" fold="1" page="1" pageScale="1" pageWidth="1169" pageHeight="1654" math="0" shadow="0">
      <root>
        <mxCell id="0" />
        <mxCell id="1" parent="0" />
        <mxCell id="Ur0rxATiRrhHwEb7jqe3-3" style="edgeStyle=orthogonalEdgeStyle;rounded=0;orthogonalLoop=1;jettySize=auto;html=1;exitX=1;exitY=0.3333333333333333;exitDx=0;exitDy=0;exitPerimeter=0;entryX=0.5;entryY=1;entryDx=0;entryDy=0;" edge="1" parent="1" source="Ur0rxATiRrhHwEb7jqe3-1" target="Ur0rxATiRrhHwEb7jqe3-2">
          <mxGeometry relative="1" as="geometry">
            <Array as="points">
              <mxPoint x="250" y="360" />
            </Array>
          </mxGeometry>
        </mxCell>
        <mxCell id="Ur0rxATiRrhHwEb7jqe3-17" style="edgeStyle=orthogonalEdgeStyle;rounded=0;orthogonalLoop=1;jettySize=auto;html=1;exitX=1;exitY=0.3333333333333333;exitDx=0;exitDy=0;exitPerimeter=0;" edge="1" parent="1" source="Ur0rxATiRrhHwEb7jqe3-1" target="Ur0rxATiRrhHwEb7jqe3-10">
          <mxGeometry relative="1" as="geometry" />
        </mxCell>
        <mxCell id="Ur0rxATiRrhHwEb7jqe3-25" style="edgeStyle=orthogonalEdgeStyle;rounded=0;orthogonalLoop=1;jettySize=auto;html=1;exitX=1;exitY=0.3333333333333333;exitDx=0;exitDy=0;exitPerimeter=0;entryX=0;entryY=0.5;entryDx=0;entryDy=0;" edge="1" parent="1" source="Ur0rxATiRrhHwEb7jqe3-1" target="Ur0rxATiRrhHwEb7jqe3-18">
          <mxGeometry relative="1" as="geometry">
            <Array as="points">
              <mxPoint x="220" y="360" />
              <mxPoint x="220" y="560" />
            </Array>
          </mxGeometry>
        </mxCell>
        <mxCell id="Ur0rxATiRrhHwEb7jqe3-37" style="edgeStyle=orthogonalEdgeStyle;rounded=0;orthogonalLoop=1;jettySize=auto;html=1;exitX=1;exitY=0.3333333333333333;exitDx=0;exitDy=0;exitPerimeter=0;entryX=0.5;entryY=0;entryDx=0;entryDy=0;" edge="1" parent="1" source="Ur0rxATiRrhHwEb7jqe3-1" target="Ur0rxATiRrhHwEb7jqe3-26">
          <mxGeometry relative="1" as="geometry">
            <Array as="points">
              <mxPoint x="190" y="360" />
              <mxPoint x="190" y="600" />
              <mxPoint x="330" y="600" />
            </Array>
          </mxGeometry>
        </mxCell>
        <mxCell id="Ur0rxATiRrhHwEb7jqe3-1" value="Пользователь" style="shape=umlActor;verticalLabelPosition=bottom;verticalAlign=top;html=1;outlineConnect=0;fillColor=#0000FF;" vertex="1" parent="1">
          <mxGeometry x="120" y="340" width="30" height="60" as="geometry" />
        </mxCell>
        <mxCell id="Ur0rxATiRrhHwEb7jqe3-8" style="edgeStyle=orthogonalEdgeStyle;rounded=0;orthogonalLoop=1;jettySize=auto;html=1;exitX=0.5;exitY=0;exitDx=0;exitDy=0;entryX=0.5;entryY=1;entryDx=0;entryDy=0;" edge="1" parent="1" source="Ur0rxATiRrhHwEb7jqe3-2" target="Ur0rxATiRrhHwEb7jqe3-4">
          <mxGeometry relative="1" as="geometry" />
        </mxCell>
        <mxCell id="Ur0rxATiRrhHwEb7jqe3-9" style="edgeStyle=orthogonalEdgeStyle;rounded=0;orthogonalLoop=1;jettySize=auto;html=1;exitX=0.5;exitY=0;exitDx=0;exitDy=0;entryX=0.5;entryY=1;entryDx=0;entryDy=0;" edge="1" parent="1" source="Ur0rxATiRrhHwEb7jqe3-2" target="Ur0rxATiRrhHwEb7jqe3-5">
          <mxGeometry relative="1" as="geometry" />
        </mxCell>
        <mxCell id="Ur0rxATiRrhHwEb7jqe3-2" value="Схема помещения" style="ellipse;whiteSpace=wrap;html=1;" vertex="1" parent="1">
          <mxGeometry x="190" y="250" width="120" height="80" as="geometry" />
        </mxCell>
        <mxCell id="Ur0rxATiRrhHwEb7jqe3-4" value="Создать зону" style="ellipse;whiteSpace=wrap;html=1;" vertex="1" parent="1">
          <mxGeometry x="90" y="120" width="120" height="80" as="geometry" />
        </mxCell>
        <mxCell id="Ur0rxATiRrhHwEb7jqe3-5" value="Удалить зону" style="ellipse;whiteSpace=wrap;html=1;" vertex="1" parent="1">
          <mxGeometry x="280" y="120" width="120" height="80" as="geometry" />
        </mxCell>
        <mxCell id="Ur0rxATiRrhHwEb7jqe3-14" style="edgeStyle=orthogonalEdgeStyle;rounded=0;orthogonalLoop=1;jettySize=auto;html=1;exitX=0.5;exitY=0;exitDx=0;exitDy=0;entryX=0.5;entryY=1;entryDx=0;entryDy=0;" edge="1" parent="1" source="Ur0rxATiRrhHwEb7jqe3-10" target="Ur0rxATiRrhHwEb7jqe3-11">
          <mxGeometry relative="1" as="geometry" />
        </mxCell>
        <mxCell id="Ur0rxATiRrhHwEb7jqe3-15" style="edgeStyle=orthogonalEdgeStyle;rounded=0;orthogonalLoop=1;jettySize=auto;html=1;exitX=0.5;exitY=0;exitDx=0;exitDy=0;entryX=0.5;entryY=1;entryDx=0;entryDy=0;" edge="1" parent="1" source="Ur0rxATiRrhHwEb7jqe3-10" target="Ur0rxATiRrhHwEb7jqe3-12">
          <mxGeometry relative="1" as="geometry" />
        </mxCell>
        <mxCell id="Ur0rxATiRrhHwEb7jqe3-16" style="edgeStyle=orthogonalEdgeStyle;rounded=0;orthogonalLoop=1;jettySize=auto;html=1;exitX=0.5;exitY=0;exitDx=0;exitDy=0;entryX=0.5;entryY=1;entryDx=0;entryDy=0;" edge="1" parent="1" source="Ur0rxATiRrhHwEb7jqe3-10" target="Ur0rxATiRrhHwEb7jqe3-13">
          <mxGeometry relative="1" as="geometry" />
        </mxCell>
        <mxCell id="Ur0rxATiRrhHwEb7jqe3-10" value="Настройки" style="ellipse;whiteSpace=wrap;html=1;" vertex="1" parent="1">
          <mxGeometry x="380" y="340" width="120" height="80" as="geometry" />
        </mxCell>
        <mxCell id="Ur0rxATiRrhHwEb7jqe3-11" value="Wifi" style="ellipse;whiteSpace=wrap;html=1;" vertex="1" parent="1">
          <mxGeometry x="380" y="210" width="120" height="80" as="geometry" />
        </mxCell>
        <mxCell id="Ur0rxATiRrhHwEb7jqe3-12" value="Сканирование" style="ellipse;whiteSpace=wrap;html=1;" vertex="1" parent="1">
          <mxGeometry x="525" y="210" width="120" height="80" as="geometry" />
        </mxCell>
        <mxCell id="Ur0rxATiRrhHwEb7jqe3-13" value="Интеграция" style="ellipse;whiteSpace=wrap;html=1;" vertex="1" parent="1">
          <mxGeometry x="670" y="210" width="120" height="80" as="geometry" />
        </mxCell>
        <mxCell id="Ur0rxATiRrhHwEb7jqe3-22" style="edgeStyle=orthogonalEdgeStyle;rounded=0;orthogonalLoop=1;jettySize=auto;html=1;exitX=0.5;exitY=0;exitDx=0;exitDy=0;entryX=0.5;entryY=1;entryDx=0;entryDy=0;" edge="1" parent="1" source="Ur0rxATiRrhHwEb7jqe3-18" target="Ur0rxATiRrhHwEb7jqe3-19">
          <mxGeometry relative="1" as="geometry" />
        </mxCell>
        <mxCell id="Ur0rxATiRrhHwEb7jqe3-23" style="edgeStyle=orthogonalEdgeStyle;rounded=0;orthogonalLoop=1;jettySize=auto;html=1;exitX=0.5;exitY=0;exitDx=0;exitDy=0;entryX=0.5;entryY=1;entryDx=0;entryDy=0;" edge="1" parent="1" source="Ur0rxATiRrhHwEb7jqe3-18" target="Ur0rxATiRrhHwEb7jqe3-20">
          <mxGeometry relative="1" as="geometry" />
        </mxCell>
        <mxCell id="Ur0rxATiRrhHwEb7jqe3-24" style="edgeStyle=orthogonalEdgeStyle;rounded=0;orthogonalLoop=1;jettySize=auto;html=1;exitX=0.5;exitY=0;exitDx=0;exitDy=0;entryX=0.5;entryY=1;entryDx=0;entryDy=0;" edge="1" parent="1" source="Ur0rxATiRrhHwEb7jqe3-18" target="Ur0rxATiRrhHwEb7jqe3-21">
          <mxGeometry relative="1" as="geometry" />
        </mxCell>
        <mxCell id="Ur0rxATiRrhHwEb7jqe3-18" value="Состояние" style="ellipse;whiteSpace=wrap;html=1;" vertex="1" parent="1">
          <mxGeometry x="430" y="520" width="120" height="80" as="geometry" />
        </mxCell>
        <mxCell id="Ur0rxATiRrhHwEb7jqe3-19" value="Статус" style="ellipse;whiteSpace=wrap;html=1;" vertex="1" parent="1">
          <mxGeometry x="510" y="380" width="120" height="80" as="geometry" />
        </mxCell>
        <mxCell id="Ur0rxATiRrhHwEb7jqe3-20" value="Заряд батареи" style="ellipse;whiteSpace=wrap;html=1;" vertex="1" parent="1">
          <mxGeometry x="660" y="380" width="120" height="80" as="geometry" />
        </mxCell>
        <mxCell id="Ur0rxATiRrhHwEb7jqe3-21" value="Контейнер" style="ellipse;whiteSpace=wrap;html=1;" vertex="1" parent="1">
          <mxGeometry x="810" y="380" width="120" height="80" as="geometry" />
        </mxCell>
        <mxCell id="Ur0rxATiRrhHwEb7jqe3-36" style="edgeStyle=orthogonalEdgeStyle;rounded=0;orthogonalLoop=1;jettySize=auto;html=1;exitX=1;exitY=0.5;exitDx=0;exitDy=0;entryX=0;entryY=0.5;entryDx=0;entryDy=0;" edge="1" parent="1" source="Ur0rxATiRrhHwEb7jqe3-26" target="Ur0rxATiRrhHwEb7jqe3-27">
          <mxGeometry relative="1" as="geometry" />
        </mxCell>
        <mxCell id="Ur0rxATiRrhHwEb7jqe3-26" value="Управление" style="ellipse;whiteSpace=wrap;html=1;" vertex="1" parent="1">
          <mxGeometry x="270" y="640" width="120" height="80" as="geometry" />
        </mxCell>
        <mxCell id="Ur0rxATiRrhHwEb7jqe3-32" style="edgeStyle=orthogonalEdgeStyle;rounded=0;orthogonalLoop=1;jettySize=auto;html=1;exitX=0.5;exitY=1;exitDx=0;exitDy=0;entryX=0.5;entryY=0;entryDx=0;entryDy=0;" edge="1" parent="1" source="Ur0rxATiRrhHwEb7jqe3-27" target="Ur0rxATiRrhHwEb7jqe3-28">
          <mxGeometry relative="1" as="geometry" />
        </mxCell>
        <mxCell id="Ur0rxATiRrhHwEb7jqe3-33" style="edgeStyle=orthogonalEdgeStyle;rounded=0;orthogonalLoop=1;jettySize=auto;html=1;exitX=0.5;exitY=1;exitDx=0;exitDy=0;entryX=0.5;entryY=0;entryDx=0;entryDy=0;" edge="1" parent="1" source="Ur0rxATiRrhHwEb7jqe3-27" target="Ur0rxATiRrhHwEb7jqe3-29">
          <mxGeometry relative="1" as="geometry" />
        </mxCell>
        <mxCell id="Ur0rxATiRrhHwEb7jqe3-34" style="edgeStyle=orthogonalEdgeStyle;rounded=0;orthogonalLoop=1;jettySize=auto;html=1;exitX=0.5;exitY=1;exitDx=0;exitDy=0;entryX=0.5;entryY=0;entryDx=0;entryDy=0;" edge="1" parent="1" source="Ur0rxATiRrhHwEb7jqe3-27" target="Ur0rxATiRrhHwEb7jqe3-30">
          <mxGeometry relative="1" as="geometry" />
        </mxCell>
        <mxCell id="Ur0rxATiRrhHwEb7jqe3-35" style="edgeStyle=orthogonalEdgeStyle;rounded=0;orthogonalLoop=1;jettySize=auto;html=1;exitX=0.5;exitY=1;exitDx=0;exitDy=0;" edge="1" parent="1" source="Ur0rxATiRrhHwEb7jqe3-27" target="Ur0rxATiRrhHwEb7jqe3-31">
          <mxGeometry relative="1" as="geometry" />
        </mxCell>
        <mxCell id="Ur0rxATiRrhHwEb7jqe3-27" value="Уборка" style="ellipse;whiteSpace=wrap;html=1;" vertex="1" parent="1">
          <mxGeometry x="465" y="640" width="120" height="80" as="geometry" />
        </mxCell>
        <mxCell id="Ur0rxATiRrhHwEb7jqe3-28" value="Влажная" style="ellipse;whiteSpace=wrap;html=1;" vertex="1" parent="1">
          <mxGeometry x="360" y="760" width="120" height="80" as="geometry" />
        </mxCell>
        <mxCell id="Ur0rxATiRrhHwEb7jqe3-29" value="Ручная" style="ellipse;whiteSpace=wrap;html=1;" vertex="1" parent="1">
          <mxGeometry x="500" y="760" width="120" height="80" as="geometry" />
        </mxCell>
        <mxCell id="Ur0rxATiRrhHwEb7jqe3-30" value="Интенсивная" style="ellipse;whiteSpace=wrap;html=1;" vertex="1" parent="1">
          <mxGeometry x="645" y="760" width="120" height="80" as="geometry" />
        </mxCell>
        <mxCell id="Ur0rxATiRrhHwEb7jqe3-31" value="Автоматический режим" style="ellipse;whiteSpace=wrap;html=1;" vertex="1" parent="1">
          <mxGeometry x="790" y="760" width="120" height="80" as="geometry" />
        </mxCell>
        <mxCell id="Ur0rxATiRrhHwEb7jqe3-41" style="edgeStyle=orthogonalEdgeStyle;rounded=0;orthogonalLoop=1;jettySize=auto;html=1;exitX=0;exitY=0.5;exitDx=0;exitDy=0;entryX=1;entryY=0.5;entryDx=0;entryDy=0;" edge="1" parent="1" source="Ur0rxATiRrhHwEb7jqe3-38" target="Ur0rxATiRrhHwEb7jqe3-39">
          <mxGeometry relative="1" as="geometry" />
        </mxCell>
        <mxCell id="Ur0rxATiRrhHwEb7jqe3-42" style="edgeStyle=orthogonalEdgeStyle;rounded=0;orthogonalLoop=1;jettySize=auto;html=1;exitX=0;exitY=0.5;exitDx=0;exitDy=0;entryX=1;entryY=0.5;entryDx=0;entryDy=0;" edge="1" parent="1" source="Ur0rxATiRrhHwEb7jqe3-38" target="Ur0rxATiRrhHwEb7jqe3-40">
          <mxGeometry relative="1" as="geometry" />
        </mxCell>
        <mxCell id="Ur0rxATiRrhHwEb7jqe3-43" style="edgeStyle=orthogonalEdgeStyle;rounded=0;orthogonalLoop=1;jettySize=auto;html=1;exitX=0;exitY=0.5;exitDx=0;exitDy=0;entryX=1;entryY=0.5;entryDx=0;entryDy=0;" edge="1" parent="1" source="Ur0rxATiRrhHwEb7jqe3-38" target="Ur0rxATiRrhHwEb7jqe3-18">
          <mxGeometry relative="1" as="geometry" />
        </mxCell>
        <mxCell id="Ur0rxATiRrhHwEb7jqe3-38" value="РОБОТ" style="ellipse;whiteSpace=wrap;html=1;aspect=fixed;fillColor=#B3FF66;" vertex="1" parent="1">
          <mxGeometry x="1060" y="520" width="80" height="80" as="geometry" />
        </mxCell>
        <mxCell id="Ur0rxATiRrhHwEb7jqe3-39" value="Возвращение на базу" style="ellipse;whiteSpace=wrap;html=1;" vertex="1" parent="1">
          <mxGeometry x="890" y="470" width="120" height="80" as="geometry" />
        </mxCell>
        <mxCell id="Ur0rxATiRrhHwEb7jqe3-40" value="Обновление&lt;br&gt;системы" style="ellipse;whiteSpace=wrap;html=1;" vertex="1" parent="1">
          <mxGeometry x="890" y="580" width="120" height="80" as="geometry" />
        </mxCell>
      </root>
    </mxGraphModel>
  </diagram>
</mxfile>
